<svg xmlns="http://www.w3.org/2000/svg" xmlns:svg="http://www.w3.org/2000/svg" xmlns:xlink="http://www.w3.org/1999/xlink" id="svg11300" width="32" height="32" version="1.0"><defs id="defs3"><linearGradient id="linearGradient4376"><stop id="stop4378" offset="0" stop-color="#babdb6" stop-opacity="1"/><stop id="stop4380" offset="1" stop-color="#eeeeec" stop-opacity="1"/></linearGradient><linearGradient id="linearGradient3678"><stop id="stop3680" offset="0" stop-color="#fff" stop-opacity="1"/><stop id="stop3682" offset="1" stop-color="#fff" stop-opacity="0"/></linearGradient><linearGradient id="linearGradient5502"><stop id="stop5504" offset="0" stop-color="#fff" stop-opacity="1"/><stop id="stop5506" offset="1" stop-color="#fff" stop-opacity="0"/></linearGradient><linearGradient id="linearGradient5526"><stop id="stop5528" offset="0" stop-color="#fff" stop-opacity="1"/><stop id="stop5530" offset="1" stop-color="#fff" stop-opacity="0"/></linearGradient><linearGradient id="linearGradient5534"><stop id="stop5536" offset="0" stop-color="#fff" stop-opacity="1"/><stop id="stop5538" offset="1" stop-color="#fff" stop-opacity="0"/></linearGradient><linearGradient id="linearGradient2853"><stop id="stop2855" offset="0" stop-color="#636767" stop-opacity="1"/><stop id="stop2857" offset="1" stop-color="#bfbebe" stop-opacity="1"/></linearGradient><linearGradient id="linearGradient8286" x1="3.87" x2="5.318" y1="37.711" y2="33.517" gradientTransform="matrix(0.6363876,0,0,-0.7095286,9.08371e-2,32.6878)" gradientUnits="userSpaceOnUse" xlink:href="#linearGradient5502"/><linearGradient id="linearGradient8289" x1="7.313" x2="3.938" y1="37" y2="37.875" gradientTransform="matrix(0,-0.7282899,0.6968062,0,3.0031297,28.962314)" gradientUnits="userSpaceOnUse" xlink:href="#linearGradient5534"/><linearGradient id="linearGradient8292" x1="43.75" x2="42.375" y1="39.188" y2="33.5" gradientTransform="matrix(0.6970464,0,0,0.7282899,-0.5150575,-1.2508536)" gradientUnits="userSpaceOnUse" xlink:href="#linearGradient4376"/><linearGradient id="linearGradient8295" x1="5.549" x2="3.86" y1="37.843" y2="33.251" gradientTransform="matrix(-0.6251815,0,0,-0.6541332,31.875546,30.511929)" gradientUnits="userSpaceOnUse" xlink:href="#linearGradient5502"/><linearGradient id="linearGradient8298" x1="41.375" x2="42.063" y1="14.75" y2="9.875" gradientTransform="matrix(0.6988542,0,0,0.7282899,-0.5920886,-1.6810956)" gradientUnits="userSpaceOnUse" xlink:href="#linearGradient4376"/><linearGradient id="linearGradient8301" x1="7.5" x2="6.313" y1="15.75" y2="10" gradientTransform="matrix(0.7099133,0,0,0.7282899,-0.9846965,-1.6808516)" gradientUnits="userSpaceOnUse" xlink:href="#linearGradient4376"/><linearGradient id="linearGradient8307" x1="3.875" x2="4.188" y1="33.875" y2="39.375" gradientTransform="matrix(0.7099133,0,0,0.7282899,-0.2435332,-1.2664786)" gradientUnits="userSpaceOnUse" xlink:href="#linearGradient5526"/><linearGradient id="linearGradient8310" x1="9.563" x2="7.5" y1="39.313" y2="34.188" gradientTransform="matrix(0.7099133,0,0,0.7310473,-0.9846965,-1.3600646)" gradientUnits="userSpaceOnUse" xlink:href="#linearGradient4376"/><linearGradient id="linearGradient8313" x1="4.625" x2="23.875" y1="-7.625" y2="47.75" gradientTransform="matrix(0.6760611,0,0,0.7039813,0.4478639,-0.8862376)" gradientUnits="userSpaceOnUse" xlink:href="#linearGradient3678"/><linearGradient id="linearGradient8319" x1="-31.832" x2="-31.832" y1="7.931" y2="37.931" gradientTransform="matrix(0.6928211,0,0,0.7245164,38.054945,-0.5967516)" gradientUnits="userSpaceOnUse" xlink:href="#linearGradient2853"/><radialGradient id="radialGradient8767" cx="15.253" cy="2.872" r="5.579" fx="15.253" fy="2.872" gradientTransform="matrix(-2.6934876e-6,0.6906818,-0.7025735,-1.3794102e-7,21.993629,-1.2490346)" gradientUnits="userSpaceOnUse" xlink:href="#linearGradient2277"/><radialGradient id="radialGradient8765" cx="14.488" cy="-22.655" r="12.313" fx="14.488" fy="-22.655" gradientTransform="matrix(-0.3450886,2.1506619,-1.3857715,-0.229431,-9.121993,-60.756663)" gradientUnits="userSpaceOnUse" xlink:href="#linearGradient8754"/><radialGradient id="radialGradient8752" cx="56.704" cy="10.241" r="14.75" fx="56.704" fy="10.241" gradientTransform="matrix(0.4493264,0.1548708,-0.2037122,0.5859064,-14.587751,-0.3600312)" gradientUnits="userSpaceOnUse" xlink:href="#linearGradient8440"/><radialGradient id="radialGradient7978" cx="8.144" cy="7.268" r="38.159" fx="8.144" fy="7.268" gradientTransform="matrix(0.9767883,0,0,1.0291075,3.3156277,0.9781569)" gradientUnits="userSpaceOnUse" xlink:href="#linearGradient15662"/><radialGradient id="radialGradient7976" cx="8.824" cy="3.756" r="37.752" fx="8.824" fy="3.756" gradientTransform="matrix(0.9988117,0,0,1.0519401,2.8016713,0.4602236)" gradientUnits="userSpaceOnUse" xlink:href="#linearGradient269"/><radialGradient id="radialGradient7974" cx="33.967" cy="35.737" r="86.708" fx="33.967" fy="35.737" gradientTransform="matrix(0.9907871,0,0,1.0604597,-0.6576517,-0.1982243)" gradientUnits="userSpaceOnUse" xlink:href="#linearGradient259"/><linearGradient id="linearGradient7972" x1="33.396" x2="34.17" y1="36.921" y2="38.07" gradientTransform="matrix(-2.48131e-2,-0.756771,0.756567,-2.481981e-2,8.221918,36.1682)" gradientUnits="userSpaceOnUse" xlink:href="#linearGradient2251"/><radialGradient id="radialGradient7970" cx="31.863" cy="2.367" r="37.752" fx="31.863" fy="2.367" gradientTransform="matrix(0.331735,0,0,0.353831,20.10526,9.5823)" gradientUnits="userSpaceOnUse" xlink:href="#linearGradient269"/><radialGradient id="radialGradient7968" cx="30.654" cy="14.937" r="86.708" fx="30.654" fy="14.937" gradientTransform="matrix(0.148355,1.009137e-2,-1.104438e-2,0.162365,25.06011,12.81706)" gradientUnits="userSpaceOnUse" xlink:href="#linearGradient259"/><radialGradient id="radialGradient7966" cx="37.03" cy="12.989" r="4.293" fx="37.03" fy="12.989" gradientTransform="matrix(1.744653,0,0,1.283833,-26.58256,-3.478359)" gradientUnits="userSpaceOnUse" xlink:href="#linearGradient4790"/><linearGradient id="linearGradient8440"><stop id="stop8442" offset="0" stop-color="#edeeec" stop-opacity="1"/><stop id="stop8444" offset="1" stop-color="#babdb6" stop-opacity="1"/></linearGradient><radialGradient id="radialGradient4085" cx="26.813" cy=".5" r="25.313" fx="26.813" fy=".5" gradientTransform="matrix(1,0,0,7.4074073e-2,0,0.4629607)" gradientUnits="userSpaceOnUse" xlink:href="#linearGradient15837"/><linearGradient id="linearGradient15837"><stop id="stop15839" offset="0" stop-color="#000" stop-opacity="1"/><stop id="stop15841" offset="1" stop-color="#000" stop-opacity="0"/></linearGradient><linearGradient id="linearGradient2405" x1="25.058" x2="25.058" y1="47.028" y2="39.999" gradientUnits="userSpaceOnUse" xlink:href="#linearGradient3702"/><radialGradient id="radialGradient2403" cx="4.993" cy="43.5" r="2.5" fx="4.993" fy="43.5" gradientTransform="matrix(2.003784,0,0,1.4,-20.01187,-104.4)" gradientUnits="userSpaceOnUse" xlink:href="#linearGradient3688"/><radialGradient id="radialGradient2401" cx="4.993" cy="43.5" r="2.5" fx="4.993" fy="43.5" gradientTransform="matrix(2.003784,0,0,1.4,27.98813,-17.4)" gradientUnits="userSpaceOnUse" xlink:href="#linearGradient3688"/><linearGradient id="linearGradient3702"><stop id="stop3704" offset="0" stop-color="#000" stop-opacity="0"/><stop id="stop3710" offset=".5" stop-color="#000" stop-opacity="1"/><stop id="stop3706" offset="1" stop-color="#000" stop-opacity="0"/></linearGradient><linearGradient id="linearGradient3688"><stop id="stop3690" offset="0" stop-color="#000" stop-opacity="1"/><stop id="stop8147" offset="1" stop-color="#000" stop-opacity="0"/></linearGradient><linearGradient id="linearGradient4790"><stop id="stop4792" offset="0" stop-color="#000" stop-opacity="1"/><stop id="stop4794" offset="1" stop-color="#000" stop-opacity="0"/></linearGradient><linearGradient id="linearGradient2251"><stop id="stop2253" offset="0" stop-color="#fff" stop-opacity="1"/><stop id="stop2255" offset="1" stop-color="#fff" stop-opacity="0"/></linearGradient><linearGradient id="linearGradient15662"><stop id="stop15664" offset="0" stop-color="#fff" stop-opacity="1"/><stop id="stop15666" offset="1" stop-color="#f8f8f8" stop-opacity="1"/></linearGradient><linearGradient id="linearGradient269"><stop id="stop270" offset="0" stop-color="#a3a3a3" stop-opacity="1"/><stop id="stop271" offset="1" stop-color="#8a8a8a" stop-opacity="1"/></linearGradient><linearGradient id="linearGradient259"><stop id="stop260" offset="0" stop-color="#fafafa" stop-opacity="1"/><stop id="stop261" offset="1" stop-color="#bbb" stop-opacity="1"/></linearGradient><linearGradient id="linearGradient2277"><stop id="stop2279" offset="0" stop-color="#729fcf" stop-opacity="1"/><stop id="stop2281" offset="1" stop-color="#3465a4" stop-opacity="1"/></linearGradient><linearGradient id="linearGradient8754"><stop id="stop8756" offset="0" stop-color="#729fcf" stop-opacity="1"/><stop id="stop8758" offset="1" stop-color="#3465a4" stop-opacity="1"/></linearGradient><linearGradient id="linearGradient2922" x1="1750.438" x2="1881.961" y1="214.133" y2="214.133" gradientTransform="scale(0.3448452,2.8998519)" gradientUnits="userSpaceOnUse" xlink:href="#linearGradient2919"/><radialGradient id="radialGradient1861" cx="681.243" cy="719.179" r="50.992" fx="681.562" fy="718.942" gradientTransform="scale(0.8860685,1.1285809)" gradientUnits="userSpaceOnUse" xlink:href="#linearGradient2919"/><linearGradient id="linearGradient1858" x1="2438.149" x2="2611.335" y1="-114.349" y2="-114.349" gradientTransform="scale(0.3328904,3.0039914)" gradientUnits="userSpaceOnUse" xlink:href="#linearGradient2919"/><linearGradient id="linearGradient2106" x1="199.88" x2="-92.162" y1="741.043" y2="831.526" gradientTransform="scale(1.155687,0.8652862)" gradientUnits="userSpaceOnUse" xlink:href="#linearGradient2102"/><linearGradient id="linearGradient2033" x1="487.031" x2="95.579" y1="605.97" y2="661.332" gradientTransform="scale(1.1556876,0.8652858)" gradientUnits="userSpaceOnUse" spreadMethod="pad" xlink:href="#linearGradient2029"/><radialGradient id="radialGradient1969" cx="249.769" cy="753.068" r="345.014" fx="252.927" fy="750.948" gradientTransform="scale(1.1754075,0.8507688)" gradientUnits="userSpaceOnUse" spreadMethod="pad" xlink:href="#linearGradient2025"/><linearGradient id="linearGradient1705"><stop id="stop1706" offset="0" stop-color="#e3e2ac" stop-opacity="1"/><stop id="stop1736" offset=".5" stop-color="#e9e8b7" stop-opacity=".953"/><stop id="stop1707" offset="1" stop-color="#f0efc2" stop-opacity=".906"/></linearGradient><linearGradient id="linearGradient1709"><stop id="stop1710" offset="0" stop-color="#ea00ff" stop-opacity="1"/><stop id="stop1855" offset=".096" stop-color="#ff0085" stop-opacity="1"/><stop id="stop1780" offset=".338" stop-color="red" stop-opacity="1"/><stop id="stop1711" offset="1" stop-color="#feff00" stop-opacity="1"/></linearGradient><linearGradient id="linearGradient1713"><stop id="stop1714" offset="0" stop-color="#5d5739" stop-opacity=".599"/><stop id="stop1715" offset="1" stop-color="#d7c80c" stop-opacity=".159"/></linearGradient><linearGradient id="linearGradient1739"><stop id="stop1740" offset="0" stop-color="#57595a" stop-opacity="1"/><stop id="stop1741" offset="1" stop-color="#0cbad7" stop-opacity=".194"/></linearGradient><linearGradient id="linearGradient1768"><stop id="stop1769" offset="0" stop-color="#cee3fb" stop-opacity=".855"/><stop id="stop1770" offset="1" stop-color="#5c93c9" stop-opacity=".039"/></linearGradient><linearGradient id="linearGradient1772"><stop id="stop1773" offset="0" stop-color="#c8f2fb" stop-opacity=".29"/><stop id="stop1774" offset="1" stop-color="#000102" stop-opacity=".04"/></linearGradient><linearGradient id="linearGradient1775"><stop id="stop1776" offset="0" stop-color="#fffae8" stop-opacity=".172"/><stop id="stop1777" offset="1" stop-color="#325ab8" stop-opacity=".559"/></linearGradient><linearGradient id="linearGradient1845"><stop id="stop1846" offset="0" stop-color="#0009ff" stop-opacity="1"/><stop id="stop1848" offset="1" stop-color="#ea00ff" stop-opacity="1"/></linearGradient><linearGradient id="linearGradient1850"><stop id="stop1851" offset="0" stop-color="#a2ff00" stop-opacity="1"/><stop id="stop1853" offset=".233" stop-color="#00d4c7" stop-opacity="1"/><stop id="stop1854" offset=".676" stop-color="#0097ff" stop-opacity="1"/><stop id="stop1852" offset="1" stop-color="#0006ff" stop-opacity="1"/></linearGradient><linearGradient id="linearGradient1647"><stop id="stop1648" offset="0" stop-color="#000" stop-opacity=".6"/><stop id="stop1649" offset="1" stop-color="#fff" stop-opacity=".643"/></linearGradient><linearGradient id="linearGradient1651"><stop id="stop1652" offset="0" stop-color="#fffc00" stop-opacity="1"/><stop id="stop1662" offset=".5" stop-color="#818181" stop-opacity="1"/><stop id="stop1666" offset=".625" stop-color="#555b94" stop-opacity="1"/><stop id="stop1664" offset=".75" stop-color="#4040c0" stop-opacity="1"/><stop id="stop1653" offset="1" stop-color="#3c00ff" stop-opacity="1"/></linearGradient><linearGradient id="linearGradient1673"><stop id="stop1674" offset="0" stop-color="#000" stop-opacity=".306"/><stop id="stop1675" offset="1" stop-color="#fffbab" stop-opacity=".731"/></linearGradient><marker id="Arrow1L" orient="auto" overflow="visible" refX="0" refY="0"><path id="path1779" fill-rule="evenodd" stroke="#000" stroke-width="1pt" marker-start="none" d="M 0,0 L 5,-5 L -12.5,0 L 5,5 L 0,0 z" transform="scale(0.8,0.8)"/></marker><marker id="Arrow1M" orient="auto" overflow="visible" refX="0" refY="0"><path id="path1777" fill-rule="evenodd" stroke="#000" stroke-width="1pt" marker-start="none" d="M 0,0 L 5,-5 L -12.5,0 L 5,5 L 0,0 z" transform="scale(0.4,0.4)"/></marker><marker id="Arrow1S" orient="auto" overflow="visible" refX="0" refY="0"><path id="path983" fill-rule="evenodd" stroke="#000" stroke-width="1pt" marker-start="none" d="M 0,0 L 5,-5 L -12.5,0 L 5,5 L 0,0 z" transform="scale(0.2,0.2)"/></marker><marker id="Tail" orient="auto" overflow="visible" refX="0" refY="0"><g id="g1087" transform="scale(-1.2,-1.2)"><path id="path1126" fill="none" fill-rule="evenodd" stroke="#000" stroke-linecap="round" stroke-width=".8" marker-end="none" marker-start="none" d="M -3.8048674,-3.9585227 L 0.54352094,-0.00068114835"/><path id="path1127" fill="none" fill-rule="evenodd" stroke="#000" stroke-linecap="round" stroke-width=".8" marker-end="none" marker-start="none" d="M -1.2866832,-3.9585227 L 3.0617053,-0.00068114835"/><path id="path1764" fill="none" fill-rule="evenodd" stroke="#000" stroke-linecap="round" stroke-width=".8" marker-end="none" marker-start="none" d="M 1.3053582,-3.9585227 L 5.6537466,-0.00068114835"/><path id="path1848" fill="none" fill-rule="evenodd" stroke="#000" stroke-linecap="round" stroke-width=".8" marker-end="none" marker-start="none" d="M -3.8048674,4.1775838 L 0.54352094,0.21974226"/><path id="path1849" fill="none" fill-rule="evenodd" stroke="#000" stroke-linecap="round" stroke-width=".8" marker-end="none" marker-start="none" d="M -1.2866832,4.1775838 L 3.0617053,0.21974226"/><path id="path1850" fill="none" fill-rule="evenodd" stroke="#000" stroke-linecap="round" stroke-width=".8" marker-end="none" marker-start="none" d="M 1.3053582,4.1775838 L 5.6537466,0.21974226"/></g></marker><linearGradient id="linearGradient4124"><stop id="stop4125" offset="0" stop-color="#3a3a3a" stop-opacity="1"/><stop id="stop4129" offset="1" stop-color="#979797" stop-opacity="1"/></linearGradient><linearGradient id="linearGradient4132"><stop id="stop4133" offset="0" stop-color="#000" stop-opacity=".128"/><stop id="stop4134" offset="1" stop-color="#fffbab" stop-opacity=".176"/></linearGradient><linearGradient id="linearGradient4145"><stop id="stop4146" offset="0" stop-color="#e4d526" stop-opacity=".392"/><stop id="stop4147" offset="1" stop-color="#89854f" stop-opacity=".569"/></linearGradient><linearGradient id="linearGradient4149"><stop id="stop4150" offset="0" stop-color="#5c5c16" stop-opacity=".617"/><stop id="stop4151" offset="1" stop-color="#6a650b" stop-opacity=".843"/></linearGradient><linearGradient id="linearGradient4161"><stop id="stop4162" offset="0" stop-color="#000" stop-opacity=".207"/><stop id="stop4166" offset=".645" stop-color="#fff" stop-opacity=".062"/><stop id="stop4163" offset="1" stop-color="#fff" stop-opacity=".835"/></linearGradient><linearGradient id="linearGradient4167"><stop id="stop4168" offset="0" stop-color="#404040" stop-opacity=".592"/><stop id="stop4169" offset="1" stop-color="#c6c6c6" stop-opacity=".744"/></linearGradient><linearGradient id="linearGradient1784"><stop id="stop1785" offset="0" stop-color="#3c00ff" stop-opacity="1"/><stop id="stop1786" offset="1" stop-color="#ea00ff" stop-opacity="1"/></linearGradient><linearGradient id="linearGradient1787"><stop id="stop1788" offset="0" stop-color="#00d5c8" stop-opacity="1"/><stop id="stop1790" offset=".429" stop-color="#0097ff" stop-opacity="1"/><stop id="stop1791" offset="1" stop-color="#3c00ff" stop-opacity="1"/></linearGradient><linearGradient id="linearGradient1792"><stop id="stop1793" offset="0" stop-color="#ea00ff" stop-opacity="1"/><stop id="stop1794" offset=".135" stop-color="#ff0085" stop-opacity="1"/><stop id="stop1795" offset=".338" stop-color="red" stop-opacity="1"/><stop id="stop1796" offset="1" stop-color="#feff00" stop-opacity="1"/></linearGradient><linearGradient id="linearGradient1797"><stop id="stop1798" offset="0" stop-color="#00d5c7" stop-opacity="1"/><stop id="stop1801" offset="1" stop-color="#feff00" stop-opacity="1"/></linearGradient><marker id="Arrow2L" orient="auto" overflow="visible" refX="0" refY="0"><path id="path1916" fill-rule="evenodd" stroke-linejoin="round" stroke-width=".625" d="M 8.7185878,4.0337352 L -2.2072895,0.016013256 L 8.7185884,-4.0017078 C 6.97309,-1.6296469 6.9831476,1.6157441 8.7185878,4.0337352 z" font-size="12" transform="matrix(1.1,0,0,1.1,-5.5,0)"/></marker><marker id="TriangleOutL" orient="auto" overflow="visible" refX="0" refY="0"><path id="path1870" fill-rule="evenodd" stroke="#000" stroke-width="1pt" marker-start="none" d="M 5.77,0 L -2.88,5 L -2.88,-5 L 5.77,0 z" transform="scale(0.8,0.8)"/></marker><marker id="DistanceOut" orient="auto" overflow="visible" refX="0" refY="0"><g id="g990" transform="matrix(-0.6,0,0,0.6,-4.8,0)"><path id="path991" fill-rule="evenodd" stroke="#000" stroke-width="1pt" marker-start="none" d="M 0,0 L 5,-5 L -12.5,0 L 5,5 L 0,0 z"/><path id="path992" fill="none" fill-opacity=".75" fill-rule="evenodd" stroke="#000" stroke-width="1.6" marker-start="none" d="M -14.759949,-7 L -14.759949,65"/></g></marker><marker id="DistanceIn" orient="auto" overflow="visible" refX="0" refY="0"><g id="g987" transform="matrix(0.6,0,0,0.6,4.8,0)"><path id="path974" fill-rule="evenodd" stroke="#000" stroke-width="1pt" marker-start="none" d="M 0,0 L 5,-5 L -12.5,0 L 5,5 L 0,0 z"/><path id="path976" fill="none" fill-opacity=".75" fill-rule="evenodd" stroke="#000" stroke-width="1.6" marker-start="none" d="M -14.759949,-7 L -14.759949,65"/></g></marker><marker id="Legs" orient="auto" overflow="visible" refX="0" refY="0"><g id="g1163" transform="scale(-0.7,-0.7)"><g id="g2032" transform="matrix(0,-1,-1,0,20.70862,21.31391)"><path id="path2019" fill="none" fill-opacity=".75" fill-rule="evenodd" stroke="#000" stroke-width="1pt" marker-end="none" marker-start="none" d="M 21.22125,20.67536 C 14.311099,25.396517 18.766725,27.282204 15.380179,34.118595"/><path id="path2026" fill="none" fill-opacity=".75" fill-rule="evenodd" stroke="#000" stroke-width="1pt" marker-end="none" marker-start="none" d="M 21.39811,20.54812 C 20.037601,28.895644 24.934182,29.31806 25.903151,34.373078"/></g><path id="polygon2039" fill="#030300" fill-rule="evenodd" stroke-width="1pt" marker-end="none" d="M -14.09007,-6.7318716 L -15.012238,-2.6884886 L -11.049487,-3.9115586 L -14.09007,-6.7318716 z"/><path id="path2041" fill="#030300" fill-rule="evenodd" stroke-width="1pt" marker-end="none" d="M -15.215679,4.5567534 L -13.341552,8.2563664 L -11.074678,4.7835114 L -15.215679,4.5567534 z"/></g></marker><marker id="Torso" orient="auto" overflow="visible" refX="0" refY="0"><g id="g2045" transform="scale(0.7,0.7)"><path id="path1128" fill="none" fill-opacity=".75" fill-rule="evenodd" stroke="#000" stroke-width="1.25" marker-end="none" marker-mid="none" marker-start="none" d="M -4.7792281,-3.239542 C -2.4288541,-2.8736027 0.52103922,-1.3019943 0.25792722,0.38794346 C -0.0051877922,2.0778819 -2.2126741,2.6176539 -4.5630471,2.2517169 C -6.9134221,1.8857769 -8.521035,0.75201414 -8.257922,-0.93792336 C -7.994809,-2.6278615 -7.1296041,-3.6054813 -4.7792281,-3.239542 z"/><path id="path1909" fill="none" fill-opacity=".75" fill-rule="evenodd" stroke="#000" stroke-width="1pt" marker-end="none" d="M 4.4598789,0.088665736 C -2.5564571,-4.378332 5.2248769,-3.9061806 -0.84829578,-8.7197331"/><path id="path1910" fill="none" fill-opacity=".75" fill-rule="evenodd" stroke="#000" stroke-width="1pt" marker-end="none" marker-start="none" d="M 4.9298719,0.057520736 C -1.3872731,1.7494689 1.8027579,5.4782079 -4.9448731,7.5462725"/><rect id="rect2035" width="2.637" height="2.761" x="-10.392" y="-1.741" fill-rule="evenodd" stroke-width="1pt" marker-end="none" transform="matrix(0.527536,-0.849533,0.887668,0.460484,0,0)"/><rect id="rect2036" width="2.733" height="2.861" x="4.959" y="-7.963" fill-rule="evenodd" stroke-width="1pt" marker-end="none" transform="matrix(0.671205,-0.741272,0.790802,0.612072,0,0)"/><path id="path2037" fill="red" fill-opacity=".75" fill-rule="evenodd" stroke="#000" stroke-width="1pt" marker-end="none" marker-start="none" d="M 16.779951,-28.685045 C 16.780267,-28.349409 16.50827,-28.077155 16.172634,-28.077155 C 15.836998,-28.077155 15.565001,-28.349409 15.565317,-28.685045 C 15.565001,-29.020681 15.836998,-29.292935 16.172634,-29.292935 C 16.50827,-29.292935 16.780267,-29.020681 16.779951,-28.685045 z" transform="matrix(0,-1.109517,1.109517,0,25.96648,19.71619)"/><path id="path2038" fill="red" fill-opacity=".75" fill-rule="evenodd" stroke="#000" stroke-width="1pt" marker-end="none" marker-start="none" d="M 16.779951,-28.685045 C 16.780267,-28.349409 16.50827,-28.077155 16.172634,-28.077155 C 15.836998,-28.077155 15.565001,-28.349409 15.565317,-28.685045 C 15.565001,-29.020681 15.836998,-29.292935 16.172634,-29.292935 C 16.50827,-29.292935 16.780267,-29.020681 16.779951,-28.685045 z" transform="matrix(0,-1.109517,1.109517,0,26.8245,16.99126)"/></g></marker><marker id="Club" orient="auto" overflow="visible" refX="0" refY="0"><path id="path1015" fill-rule="evenodd" stroke="#000" stroke-width=".995" marker-start="none" d="M -1.5971367,-7.0977635 C -3.4863874,-7.0977635 -5.0235187,-5.5606321 -5.0235187,-3.6713813 C -5.0235187,-3.0147015 -4.7851656,-2.4444556 -4.4641095,-1.9232271 C -4.5028609,-1.8911157 -4.5437814,-1.8647646 -4.5806531,-1.8299921 C -5.2030765,-2.6849849 -6.1700514,-3.275133 -7.307773,-3.275133 C -9.1970245,-3.2751331 -10.734155,-1.7380016 -10.734155,0.15124914 C -10.734155,2.0404999 -9.1970245,3.5776313 -7.307773,3.5776313 C -6.3143268,3.5776313 -5.439154,3.1355702 -4.8137404,2.4588126 C -4.9384274,2.8137041 -5.0235187,3.1803 -5.0235187,3.5776313 C -5.0235187,5.4668819 -3.4863874,7.0040135 -1.5971367,7.0040135 C 0.29211394,7.0040135 1.8292454,5.4668819 1.8292454,3.5776313 C 1.8292454,2.7842354 1.5136868,2.0838028 1.0600576,1.503155 C 2.4152718,1.7663868 3.7718375,2.2973711 4.7661444,3.8340272 C 4.0279463,3.0958289 3.5540908,1.7534117 3.5540908,-0.058529361 L 2.9247554,-0.10514681 L 3.5074733,-0.12845553 C 3.5074733,-1.9403966 3.9580199,-3.2828138 4.6962183,-4.0210121 C 3.7371277,-2.5387813 2.4390549,-1.9946496 1.1299838,-1.7134486 C 1.5341802,-2.2753578 1.8292454,-2.9268556 1.8292454,-3.6713813 C 1.8292454,-5.5606319 0.29211394,-7.0977635 -1.5971367,-7.0977635 z" transform="scale(0.6,0.6)"/></marker><marker id="CurveIn" orient="auto" overflow="visible" refX="0" refY="0"><path id="path942" fill="none" fill-rule="evenodd" stroke="#000" stroke-width="1pt" marker-end="none" marker-start="none" d="M 4.625493,-5.0456926 C 1.865493,-5.0456926 -0.37450702,-2.8056926 -0.37450702,-0.04569258 C -0.37450702,2.7143074 1.865493,4.9543074 4.625493,4.9543074" transform="scale(0.6,0.6)"/></marker><linearGradient id="linearGradient1981"><stop id="stop1982" offset="0" stop-color="#000" stop-opacity=".6"/><stop id="stop1983" offset="1" stop-color="#fff" stop-opacity=".643"/></linearGradient><linearGradient id="linearGradient1984"><stop id="stop1985" offset="0" stop-color="#000" stop-opacity="0"/><stop id="stop1986" offset="1" stop-color="#fff" stop-opacity=".432"/></linearGradient><linearGradient id="linearGradient2025"><stop id="stop2026" offset="0" stop-color="#fff" stop-opacity="0"/><stop id="stop2027" offset=".564" stop-color="#fff" stop-opacity=".3"/><stop id="stop2028" offset="1" stop-color="#fff" stop-opacity=".674"/></linearGradient><linearGradient id="linearGradient2029"><stop id="stop2030" offset="0" stop-color="#000" stop-opacity=".325"/><stop id="stop2031" offset="1" stop-color="#fff" stop-opacity=".035"/></linearGradient><linearGradient id="linearGradient2091"><stop id="stop2092" offset="0" stop-color="#000" stop-opacity="0"/><stop id="stop2093" offset="1" stop-color="#fff" stop-opacity=".176"/></linearGradient><linearGradient id="linearGradient2102"><stop id="stop2103" offset="0" stop-color="#fff" stop-opacity="0"/><stop id="stop2104" offset="1" stop-color="#fff" stop-opacity=".683"/></linearGradient><linearGradient id="linearGradient2688"><stop id="stop2252" offset="0" stop-color="#000" stop-opacity="1"/><stop id="stop2691" offset="1" stop-color="#d0d0d0" stop-opacity="1"/></linearGradient><linearGradient id="linearGradient2919"><stop id="stop2920" offset="0" stop-color="#000" stop-opacity=".824"/><stop id="stop2923" offset=".328" stop-color="#000" stop-opacity=".314"/><stop id="stop2921" offset="1" stop-color="#000" stop-opacity="0"/></linearGradient><radialGradient id="radialGradient2860" cx="249.769" cy="753.068" r="345.014" fx="252.927" fy="750.948" gradientTransform="matrix(5.0812306e-2,0,0,3.6778329e-2,45.592759,-11.987624)" gradientUnits="userSpaceOnUse" spreadMethod="pad" xlink:href="#linearGradient2025"/><linearGradient id="linearGradient2863" x1="199.88" x2="-92.162" y1="741.043" y2="831.526" gradientTransform="matrix(4.9959798e-2,0,0,3.740591e-2,45.592759,-11.987624)" gradientUnits="userSpaceOnUse" xlink:href="#linearGradient2102"/><linearGradient id="linearGradient2866" x1="487.031" x2="95.579" y1="605.97" y2="661.332" gradientTransform="matrix(4.9959824e-2,0,0,3.7405892e-2,45.592759,-11.987624)" gradientUnits="userSpaceOnUse" spreadMethod="pad" xlink:href="#linearGradient2029"/><radialGradient id="radialGradient2876" cx="681.243" cy="719.179" r="50.992" fx="681.562" fy="718.942" gradientTransform="matrix(3.8304319e-2,0,0,4.8788014e-2,44.370042,-12.293312)" gradientUnits="userSpaceOnUse" xlink:href="#linearGradient2919"/><linearGradient id="linearGradient2879" x1="2438.149" x2="2611.335" y1="-114.349" y2="-114.349" gradientTransform="matrix(1.4390693e-2,0,0,0.1298611,-12.293312,-44.370042)" gradientUnits="userSpaceOnUse" xlink:href="#linearGradient2919"/><linearGradient id="linearGradient2882" x1="1750.438" x2="1881.961" y1="214.133" y2="214.133" gradientTransform="matrix(1.4907494e-2,0,0,0.1253592,44.370042,-12.293312)" gradientUnits="userSpaceOnUse" xlink:href="#linearGradient2919"/></defs><g id="layer1"><path id="path8196" fill="#000" fill-opacity="1" fill-rule="nonzero" stroke="#000" stroke-dasharray="none" stroke-dashoffset="1.2" stroke-linecap="round" stroke-linejoin="round" stroke-miterlimit="4" stroke-opacity="1" stroke-width="1" marker-end="none" marker-mid="none" marker-start="none" d="M 2.5636065,5.2929004 C 2.3622688,5.2929004 2.2099134,5.4525434 2.2099134,5.6635084 L 2.2099134,10.852016 C 2.2099134,11.062982 2.3622688,11.222625 2.5636065,11.222624 L 2.9172995,10.852016 L 2.9172995,22.711485 L 2.5636065,22.340876 C 2.3622688,22.340876 2.2099134,22.500518 2.2099134,22.711485 L 2.2099134,27.529391 C 2.2099134,27.740357 2.3622688,27.9 2.5636065,27.9 L 7.5153098,27.9 C 7.7166473,27.9 7.869003,27.740358 7.869003,27.529391 L 7.5153098,27.529391 L 25.90735,27.529391 L 25.553657,27.529391 C 25.553657,27.740357 25.706012,27.9 25.90735,27.9 L 30.505359,27.9 C 30.706696,27.9 30.859051,27.740357 30.859052,27.529391 L 30.859052,22.711485 C 30.859052,22.500518 30.706698,22.340876 30.505359,22.340876 L 30.505359,22.711485 L 30.505359,10.852016 L 30.505359,11.222624 C 30.706696,11.222624 30.859052,11.062982 30.859052,10.852016 L 30.859052,5.6635084 C 30.859052,5.4525424 30.706698,5.2929004 30.505359,5.2929004 L 25.90735,5.2929004 C 25.706012,5.2929004 25.553658,5.4525414 25.553657,5.6635084 L 25.90735,6.0341174 L 7.5153098,6.0341174 L 7.869003,5.6635084 C 7.869003,5.4525424 7.7166473,5.2929004 7.5153098,5.2929004 L 2.5636065,5.2929004 z" display="inline" opacity=".2" overflow="visible" visibility="visible" style="marker:none"/><rect stroke-linecap="round" style="marker:none" id="rect8198" width="27.02" height="21.011" x="2.491" y="5.512" fill="url(#linearGradient8319)" fill-opacity="1" fill-rule="nonzero" stroke="#888a85" stroke-dasharray="none" stroke-dashoffset="1.2" stroke-linejoin="round" stroke-miterlimit="4" stroke-opacity="1" stroke-width="1" marker-end="none" marker-mid="none" marker-start="none" display="inline" overflow="visible" visibility="visible"/><g id="g8200" display="inline" opacity=".1" transform="matrix(-0.7099133,0,0,-0.7282897,32.381233,33.332054)"><path id="path8202" fill="#000" fill-opacity="1" fill-rule="nonzero" stroke="#000" stroke-dashoffset="1.2" stroke-linecap="round" stroke-linejoin="round" stroke-miterlimit="4" stroke-opacity="1" stroke-width="1.391" marker-end="none" marker-mid="none" marker-start="none" d="M 11.5,10.013768 L 4.013757,17.500012 C 3.729135,17.500012 3.5,17.270877 3.5,16.986255 L 3.5,10.013768 C 3.5,9.7291462 3.729135,9.5000105 4.013757,9.5000105 L 10.986243,9.5000105 C 11.270865,9.5000105 11.5,9.7291462 11.5,10.013768 z" display="inline" overflow="visible" visibility="visible" style="marker:none"/><path id="path8204" fill="#000" fill-opacity="1" fill-rule="nonzero" stroke="#000" stroke-dashoffset="1.2" stroke-linecap="round" stroke-linejoin="round" stroke-miterlimit="4" stroke-opacity="1" stroke-width="1.391" marker-end="none" marker-mid="none" marker-start="none" d="M 41.986242,17.50001 L 34.499998,10.013767 C 34.499998,9.729145 34.729133,9.50001 35.013755,9.50001 L 41.986242,9.50001 C 42.270864,9.50001 42.5,9.729145 42.5,10.013767 L 42.5,16.986253 C 42.5,17.270875 42.270864,17.50001 41.986242,17.50001 z" display="inline" overflow="visible" visibility="visible" style="marker:none"/></g><rect stroke-linecap="round" style="marker:none" id="rect8206" width="25.014" height="19.007" x="3.49" y="6.506" fill="none" fill-opacity="1" fill-rule="nonzero" stroke="url(#linearGradient8313)" stroke-dasharray="none" stroke-dashoffset="1.2" stroke-linejoin="round" stroke-miterlimit="4" stroke-opacity="1" stroke-width="1" marker-end="none" marker-mid="none" marker-start="none" display="inline" overflow="visible" visibility="visible"/><path id="path8208" fill="url(#linearGradient8310)" fill-opacity="1" fill-rule="nonzero" stroke="#888a85" stroke-dashoffset="1.2" stroke-linecap="round" stroke-linejoin="round" stroke-miterlimit="4" stroke-opacity="1" stroke-width="1" marker-end="none" marker-mid="none" marker-start="none" d="M 1.8647238,21.667919 L 7.1793082,27.140717 C 7.1793082,27.348788 7.0166424,27.516297 6.8145848,27.516297 L 1.8647238,27.516297 C 1.6626667,27.516297 1.5,27.348788 1.5,27.140717 L 1.5,22.0435 C 1.5,21.835427 1.6626667,21.667919 1.8647238,21.667919 z" display="inline" overflow="visible" visibility="visible" style="marker:none"/><path id="path8210" fill="none" fill-opacity="1" fill-rule="nonzero" stroke="url(#linearGradient8307)" stroke-dasharray="none" stroke-dashoffset="1.2" stroke-linecap="round" stroke-linejoin="miter" stroke-miterlimit="4" stroke-opacity="1" stroke-width="1" marker-end="none" marker-mid="none" marker-start="none" d="M 2.5067883,23.835701 L 2.5067883,26.444545 L 5.1319741,26.507045 L 2.5067883,23.835701 z" display="inline" opacity=".6" overflow="visible" visibility="visible" style="marker:none"/><g id="g8212" opacity=".1" transform="matrix(0.7099133,0,0,0.7282897,-0.2747832,-1.6258526)"><path id="path8214" fill="#000" fill-opacity="1" fill-rule="nonzero" stroke="#000" stroke-dashoffset="1.2" stroke-linecap="round" stroke-linejoin="round" stroke-miterlimit="4" stroke-opacity="1" stroke-width="1.391" marker-end="none" marker-mid="none" marker-start="none" d="M 11.5,10.013768 L 4.013757,17.500012 C 3.729135,17.500012 3.5,17.270877 3.5,16.986255 L 3.5,10.013768 C 3.5,9.7291462 3.729135,9.5000105 4.013757,9.5000105 L 10.986243,9.5000105 C 11.270865,9.5000105 11.5,9.7291462 11.5,10.013768 z" display="inline" overflow="visible" visibility="visible" style="marker:none"/><path id="path8216" fill="#000" fill-opacity="1" fill-rule="nonzero" stroke="#000" stroke-dashoffset="1.2" stroke-linecap="round" stroke-linejoin="round" stroke-miterlimit="4" stroke-opacity="1" stroke-width="1.391" marker-end="none" marker-mid="none" marker-start="none" d="M 41.986242,17.50001 L 34.499998,10.013767 C 34.499998,9.729145 34.729133,9.50001 35.013755,9.50001 L 41.986242,9.50001 C 42.270864,9.50001 42.5,9.729145 42.5,10.013767 L 42.5,16.986253 C 42.5,17.270875 42.270864,17.50001 41.986242,17.50001 z" display="inline" overflow="visible" visibility="visible" style="marker:none"/></g><path id="path8218" fill="url(#linearGradient8301)" fill-opacity="1" fill-rule="nonzero" stroke="#888a85" stroke-dashoffset="1.2" stroke-linecap="round" stroke-linejoin="round" stroke-miterlimit="4" stroke-opacity="1" stroke-width="1" marker-end="none" marker-mid="none" marker-start="none" d="M 7.1793068,4.8837834 L 1.8647229,10.335932 C 1.662666,10.335932 1.5,10.169056 1.5,9.9617674 L 1.5,4.8837834 C 1.5,4.6764964 1.662666,4.5096194 1.8647229,4.5096194 L 6.8145835,4.5096194 C 7.016641,4.5096194 7.1793068,4.6764964 7.1793068,4.8837834 z" display="inline" overflow="visible" visibility="visible" style="marker:none"/><path id="path8220" fill="url(#linearGradient8298)" fill-opacity="1" fill-rule="nonzero" stroke="#888a85" stroke-dashoffset="1.2" stroke-linecap="round" stroke-linejoin="round" stroke-miterlimit="4" stroke-opacity="1" stroke-width="1" marker-end="none" marker-mid="none" marker-start="none" d="M 30.14788,10.335685 L 24.916087,4.8835394 C 24.916087,4.6762514 25.076218,4.5093754 25.275128,4.5093754 L 30.14788,4.5093754 C 30.346791,4.5093754 30.506924,4.6762514 30.506924,4.8835394 L 30.506924,9.9615214 C 30.506924,10.16881 30.346791,10.335685 30.14788,10.335685 z" display="inline" overflow="visible" visibility="visible" style="marker:none"/><path id="path8222" fill="url(#linearGradient8295)" fill-opacity="1" fill-rule="nonzero" stroke="none" stroke-dashoffset="1.2" stroke-linecap="round" stroke-linejoin="miter" stroke-miterlimit="4" stroke-opacity="1" stroke-width="1" d="M 25.760487,5.0007344 L 26.307521,5.5526594 L 26.405205,5.6548674 L 27.264831,5.6548674 L 29.374818,5.6548674 L 29.374818,7.8625654 L 29.374818,8.7619974 L 29.472502,8.8642064 L 30,9.4365704 L 30,8.6393484 L 30,5.3278014 L 30,5.0007344 L 29.687408,5.0007344 L 26.522428,5.0007344 L 25.760487,5.0007344 z" display="inline" opacity=".5" overflow="visible" visibility="visible" style="marker:none"/><path id="path8224" fill="url(#linearGradient8292)" fill-opacity="1" fill-rule="nonzero" stroke="#888a85" stroke-dashoffset="1.2" stroke-linecap="round" stroke-linejoin="round" stroke-miterlimit="4" stroke-opacity="1" stroke-width="1" marker-end="none" marker-mid="none" marker-start="none" d="M 24.927137,27.142427 L 30.145396,21.690272 C 30.343794,21.690272 30.50351,21.857149 30.50351,22.064437 L 30.50351,27.142427 C 30.50351,27.349714 30.343794,27.516591 30.145396,27.516591 L 25.28525,27.516591 C 25.086858,27.516591 24.927137,27.349714 24.927137,27.142427 z" display="inline" overflow="visible" visibility="visible" style="marker:none"/><path id="path8226" fill="none" fill-opacity="1" fill-rule="nonzero" stroke="url(#linearGradient8289)" stroke-dasharray="none" stroke-dashoffset="1.2" stroke-linecap="round" stroke-linejoin="miter" stroke-miterlimit="4" stroke-opacity="1" stroke-width="1" marker-end="none" marker-mid="none" marker-start="none" d="M 26.708839,26.725801 L 29.470795,26.491426 L 29.470795,23.851332 L 26.708839,26.725801 z" display="inline" opacity=".6" overflow="visible" visibility="visible" style="marker:none"/><path id="path8228" fill="url(#linearGradient8286)" fill-opacity="1" fill-rule="nonzero" stroke="none" stroke-dashoffset="1.2" stroke-linecap="round" stroke-linejoin="miter" stroke-miterlimit="4" stroke-opacity="1" stroke-width="1" d="M 6.3155036,5.0161824 L 5.7586647,5.6148474 L 5.6592289,5.7257114 L 4.7841958,5.7257114 L 2.6363877,5.7257114 L 2.6363877,8.1203674 L 2.6363877,9.0959684 L 2.5369522,9.2068334 L 2,9.8276674 L 2,8.9629324 L 2,5.3709464 L 2,5.0161824 L 2.3181938,5.0161824 L 5.5399063,5.0161824 L 6.3155036,5.0161824 z" display="inline" opacity=".5" overflow="visible" visibility="visible" style="marker:none"/><path id="path1824" fill="none" fill-opacity="1" fill-rule="evenodd" stroke="#000" stroke-linecap="butt" stroke-linejoin="miter" stroke-miterlimit="4" stroke-opacity="1" stroke-width=".569" marker-end="url(#Tail)" marker-start="url(#Arrow2L)" d="M 9.2215105,4.6786261 C 9.2215105,12.021372 9.2215105,16.560816 9.2215105,23.903562 C 16.334335,23.903562 18.307764,23.903562 25.42059,23.903562"/><path id="path3788" fill="#c4c4c4" fill-opacity="1" fill-rule="evenodd" stroke="none" stroke-dasharray="none" stroke-linecap="butt" stroke-linejoin="miter" stroke-miterlimit="4" stroke-opacity="1" stroke-width=".5" d="M 12.450704,23.380282 C 12.450704,23.380282 11.86207,22.580544 11.549296,21.746479 C 11.211268,20.84507 10.422535,18.309859 10.253521,17.464789 C 10.084507,16.619718 9.6901408,14.873239 9.5774648,13.464789 C 9.4874987,12.340213 9.5133979,11.004119 9.6338028,10.28169 C 9.7464789,9.6056338 10.129733,8.7052587 10.507042,8.4788733 C 11.070422,8.1408451 11.598815,8.4085538 12.056338,8.6197183 C 12.788732,8.9577465 13.802817,9.6338028 14.422535,10.197183 C 15.042254,10.760563 17.633803,13.352113 18.591549,14.366197 C 19.549296,15.380282 20.87324,16.704225 21.661972,17.549296 C 22.450704,18.394366 22.591549,18.535211 22.591549,18.535211 L 12.450704,23.380282 z"/><path id="path1819" fill="#fff" fill-opacity="1" fill-rule="evenodd" stroke="#000" stroke-linecap="butt" stroke-linejoin="miter" stroke-opacity="1" stroke-width=".056" d="M 16.707465,17.496749 C 16.707465,17.875682 16.400279,18.182868 16.021345,18.182868 C 15.642412,18.182868 15.335226,17.875682 15.335226,17.496749 C 15.335226,17.117815 15.642412,16.810629 16.021345,16.810629 C 16.400279,16.810629 16.707465,17.117815 16.707465,17.496749 z"/><path id="path2204" fill="none" fill-opacity=".75" fill-rule="evenodd" stroke="#000" stroke-linecap="butt" stroke-linejoin="miter" stroke-opacity="1" stroke-width=".009" d="M 77.874556,-4.4503237 C 77.883535,-4.4273333 77.903208,-4.3769549 77.904064,-4.3747563"/></g></svg>